<?xml version="1.0" encoding="utf-8"?>
<!-- Generator: Adobe Illustrator 26.0.1, SVG Export Plug-In . SVG Version: 6.00 Build 0)  -->
<svg version="1.1" id="Layer_1" xmlns="http://www.w3.org/2000/svg" xmlns:xlink="http://www.w3.org/1999/xlink" x="0px" y="0px"
	 viewBox="0 0 1080 1080" style="enable-background:new 0 0 1080 1080;" xml:space="preserve">
<style type="text/css">
	.st0{fill:#0F206C;}
	.st1{fill:#F3BD48;}
</style>
<g>
	<path class="st0" d="M536.97,455.76c-1.88-1.59-3.81-3.04-5.76-4.45c-1.21-0.89-2.42-1.74-3.65-2.57
		c-1.38-0.99-2.81-1.87-4.22-2.78c-1.03-0.67-2.06-1.37-3.1-1.99c-1.37-0.82-2.78-1.56-4.18-2.31c-1.14-0.61-2.28-1.24-3.44-1.81
		c-1.37-0.67-2.76-1.3-4.15-1.91c-1.25-0.55-2.5-1.1-3.77-1.6c-1.35-0.54-2.71-1.05-4.08-1.54c-1.37-0.49-2.76-0.95-4.15-1.39
		c-1.31-0.41-2.62-0.82-3.95-1.19c-1.54-0.43-3.09-0.81-4.65-1.18c-1.22-0.29-2.44-0.6-3.68-0.86c-1.82-0.38-3.67-0.7-5.51-1.01
		c-1.02-0.17-2.02-0.37-3.05-0.52c-2.9-0.43-5.82-0.78-8.78-1.05c-11.7-1.06-23.38-0.66-35.03,0.97
		c-14.99,2.08-29.17,6.62-42.45,13.88c-0.78,0.42-1.58,0.83-2.28,1.36c-1.88,1.42-2.55,3.37-2.13,5.65c0.1,0.53,0.25,1.01,0.46,1.45
		c0.16,0.34,0.38,0.63,0.61,0.92c0.06,0.08,0.1,0.17,0.16,0.24c0.3,0.34,0.66,0.64,1.05,0.9c0,0,0,0,0.01,0.01
		c0.4,0.27,0.85,0.49,1.34,0.68l0,0l0,0c0.33,0.38,0.72,0.72,1.16,1c0,0,0,0,0,0c0.45,0.29,0.94,0.53,1.49,0.73
		c1.98,0.71,3.65,0,5.3-0.92c6.05-3.39,12.35-6.22,18.97-8.29c23.2-7.29,46.69-7.97,70.39-2.83c2.86,0.62,5.66,1.37,8.42,2.21
		c0.44,0.13,0.87,0.26,1.31,0.39c2.78,0.88,5.51,1.85,8.18,2.95c0.15,0.06,0.3,0.13,0.45,0.19c5.69,2.37,11.15,5.25,16.34,8.7
		c1.5,1.06,2.98,2.17,4.43,3.33c0.75,0.6,1.46,1.23,2.38,2.01c-4.36,6.55-8.51,13.03-12.95,19.32c-2.11,2.99-5.38,3.71-8.79,2.36
		c-1.8-0.71-3.51-1.71-5.16-2.72c-13.02-7.98-27-12.81-42.41-13.12c-7.38-0.15-14.73-0.17-21.97,1.49
		c-21.27,4.86-35.95,17.6-44.68,37.42c-4.27,9.69-6.26,19.93-6.78,30.46c-0.69,13.86,0.69,27.48,5.71,40.53
		c0.81,2.1,1.71,4.12,2.65,6.08c0.31,0.64,0.64,1.26,0.97,1.89c0.68,1.31,1.38,2.59,2.13,3.83c0.41,0.69,0.83,1.38,1.26,2.06
		c0.78,1.21,1.6,2.37,2.45,3.5c0.42,0.57,0.82,1.17,1.26,1.73c1.17,1.48,2.42,2.88,3.71,4.24c0.7,0.73,1.44,1.42,2.18,2.11
		c0.73,0.69,1.46,1.36,2.22,2.02c0.84,0.72,1.69,1.42,2.57,2.09c0.74,0.56,1.5,1.09,2.27,1.63c0.93,0.65,1.85,1.31,2.83,1.91
		c0,0,0,0,0,0l0,0c2.13,1.45,4.36,2.8,6.72,4.01c0.13,0.07,0.26,0.15,0.39,0.22c2.45,1.23,4.99,2.37,7.7,3.33
		c19.77,7.03,39.52,6.19,58.95-1.77c4.18-1.72,5.01-2.91,5.01-7.4c0.02-10.02,0.01-20.05,0.01-30.08c0-0.71,0.01-1.42-0.08-2.13
		c-0.07-0.58-0.2-1.12-0.39-1.61c-0.16-0.42-0.38-0.77-0.63-1.12c-0.04-0.05-0.06-0.12-0.1-0.17c-0.59-0.78-1.43-1.34-2.48-1.72
		c-0.33-0.42-0.73-0.78-1.2-1.07c0,0,0,0,0,0c-0.47-0.3-1-0.54-1.61-0.71c-1-0.28-2.09-0.35-3.14-0.35
		c-6.83-0.03-13.66,0.02-20.49-0.04c-0.45,0-0.76-0.08-1.12-0.13c0,0,0,0,0,0c-0.11-0.26-0.2-0.56-0.27-0.88
		c-0.08-0.43-0.15-0.85-0.15-1.41c-0.02-4.79-0.01-9.58-0.01-14.37v-6.8h63.66v1.62v76.93c0,0.26-0.04,0.53,0.01,0.79
		c0.28,1.7-0.36,2.82-1.89,3.68c-3.39,1.92-6.63,4.12-10.08,5.94c-14.81,7.86-30.71,11.7-47.35,12.93
		c-14.52,1.08-28.87-0.02-43.06-3.26c-1.98-0.45-3.92-0.98-5.84-1.55c-0.45-0.13-0.9-0.27-1.35-0.41c-3.91-1.22-7.7-2.69-11.33-4.47
		c-0.29-0.14-0.57-0.29-0.86-0.43c-1.82-0.92-3.62-1.91-5.36-3c-1.84-1.27-3.64-2.6-5.37-4.08c-5.18-4.44-10.33-8.94-15.17-13.75
		c-6.79-6.76-13.24-13.85-19.89-20.76c-0.67-0.7-1.37-1.33-2.1-1.89c-0.73-0.56-1.48-1.05-2.25-1.46c-0.43-0.34-0.88-0.62-1.33-0.91
		c-0.26-0.17-0.51-0.36-0.78-0.51c-0.42-0.24-0.85-0.43-1.28-0.63c-0.32-0.14-0.63-0.29-0.95-0.42c-0.41-0.16-0.83-0.28-1.25-0.4
		c-0.36-0.1-0.72-0.19-1.09-0.27c-0.4-0.08-0.8-0.14-1.21-0.19c-0.4-0.05-0.81-0.07-1.22-0.08c-0.38-0.01-0.76-0.02-1.14,0
		c-0.45,0.02-0.9,0.08-1.36,0.15c-0.35,0.05-0.7,0.09-1.05,0.16c-0.52,0.11-1.05,0.28-1.57,0.44c-0.28,0.09-0.57,0.16-0.85,0.27
		c-0.81,0.31-1.62,0.67-2.42,1.12c-2.07,1.16-3.97,2.68-5.78,4.22c-5.8,4.94-12.35,8.22-19.88,9.58
		c-5.79,1.04-11.62,1.45-17.48,1.27c-1.98-0.06-3.91-0.26-5.81-0.53c-0.44-0.06-0.88-0.13-1.32-0.21c-1.85-0.31-3.67-0.68-5.44-1.19
		c-0.02-0.01-0.04-0.01-0.06-0.01c-1.93-0.56-3.8-1.25-5.63-2.05c-0.17-0.07-0.33-0.15-0.49-0.23c-1.79-0.81-3.55-1.71-5.25-2.76
		c-0.88-0.62-1.74-1.27-2.6-1.94c-0.94-0.76-1.87-1.53-2.77-2.38c-5.52-5.17-9.53-11.4-12.56-18.3c-3.71-8.47-5.53-17.37-6.04-26.56
		c-0.68-11.96,0.22-23.76,3.97-35.22c2.43-7.4,5.95-14.23,11.22-20.04c7.92-8.74,17.82-13.61,29.5-14.74
		c13.33-1.29,25.98,0.64,37.43,8.17c2.88,1.89,5.84,3.73,8.92,5.28c6.85,3.48,14.34,2.28,19.86-3.07c1.27-1.23,2.4-2.62,3.46-4.02
		c3.32-4.39,6.59-8.81,9.87-13.23c1.96-2.63,3.95-5.24,5.88-7.89c2.4-3.32,2.18-5.78-0.71-8.74c-0.44-0.45-0.88-0.88-1.33-1.3
		c-2.48-2.37-5.07-4.58-7.74-6.66c-0.01-0.01-0.03-0.02-0.04-0.03c-2.66-2.07-5.41-3.98-8.26-5.75c-1.26-0.84-2.55-1.65-3.85-2.43
		c-1.81-1.1-3.65-2.15-5.54-3.13c-0.73-0.37-1.48-0.72-2.23-1.08c-2.48-1.2-4.99-2.32-7.61-3.3c-28.14-10.48-56.59-11-84.94-1.36
		c-26.3,8.94-46.07,25.97-59.4,50.43c-9.1,16.72-12.93,34.83-13.88,53.6c-0.6,11.69-0.42,23.41-0.46,35.11
		c-0.04,11.61-1.3,23.02-5.04,34.05c-6.15,18.12-17.82,31-35.98,37.65c-8.17,2.99-16.68,4.09-25.31,4.27
		c-6.84,0.14-13.72,0.18-20.41-1.29c-12.63-2.77-25.19-5.88-37.77-8.87c-2.68-0.64-5.38-1.33-8.11-2.02
		c0.23-2.76,0.45-5.37,0.69-7.96c0.46-5.12,0.89-10.25,1.46-15.36c0.3-2.61,1.45-3.69,4.02-3.65c2.37,0.05,4.78,0.33,7.09,0.86
		c12.5,2.94,24.98,5.96,37.46,9.01c6.07,1.48,12.12,2.37,18.41,1.31c10.22-1.73,17.66-6.98,21.96-16.49c0.65-1.45,1.2-2.95,1.7-4.46
		c2.55-7.86,3.1-16,3.11-24.17c0.05-49.87,0.02-99.73,0.02-149.6c0-0.8,0.03-1.61-0.08-2.39c-0.1-0.67-0.31-1.27-0.59-1.84
		c-0.12-0.24-0.27-0.45-0.42-0.67c-0.18-0.27-0.36-0.53-0.58-0.76c-0.24-0.26-0.5-0.49-0.78-0.7c-0.15-0.11-0.3-0.2-0.46-0.29
		c-0.36-0.22-0.73-0.43-1.14-0.56c-0.24-0.28-0.5-0.52-0.79-0.74c-0.33-0.26-0.68-0.49-1.05-0.67c-0.17-0.08-0.34-0.13-0.52-0.19
		c-0.53-0.2-1.08-0.34-1.67-0.35c-2.89-0.07-5.37,2.11-5.78,5.19c-0.13,1.05-0.09,2.12-0.09,3.18c0,48.81,0.02,97.6-0.03,146.41
		c0,4.78-0.24,9.57-0.64,14.34c-0.39,4.61-1.51,9.09-3.69,13.23c-1.8,3.41-4.34,6.08-8.05,7.36c-4.59,1.59-9.27,2.28-14.11,1.11
		c-11.97-2.88-23.95-5.74-35.94-8.53c-4.48-1.04-8.98-2.18-13.54-2.63c-10.08-1-17.05,5.28-17.82,15.33
		c-0.68,8.84-1.56,17.67-2.44,26.49c-0.09,0.88-0.08,1.65-0.01,2.36c0.01,0.1,0.01,0.21,0.03,0.31c0.09,0.68,0.27,1.29,0.52,1.83
		c0.03,0.06,0.07,0.13,0.1,0.19c0.6,1.13,1.6,1.96,3.08,2.57h0l0,0c0.45,0.5,1,0.93,1.69,1.29c0.03,0.01,0.06,0.03,0.09,0.04
		c0.69,0.35,1.49,0.65,2.44,0.88c10.66,2.62,21.31,5.34,32.01,7.82c10.17,2.36,20.21,5.4,30.76,5.85c9.5,0.4,18.97,0.5,28.37-1.27
		c27.88-5.24,46.59-21.19,55.93-48.01c4.01-11.51,5.53-23.44,5.72-35.56c0.13-8.61,0.07-17.22,0.02-25.83
		c-0.06-11.03,0.86-21.99,3.26-32.76c7.43-33.31,26.49-57.23,58.2-70.32c21.54-8.89,43.94-9.84,66.61-5.04
		c2.45,0.52,4.85,1.15,7.22,1.84c0.56,0.16,1.12,0.33,1.68,0.51c2.34,0.73,4.66,1.51,6.92,2.41c0,0,0,0,0,0
		c2.38,0.95,4.7,2.01,6.98,3.16c0.34,0.17,0.68,0.35,1.02,0.52c2.23,1.16,4.44,2.39,6.58,3.74c1.2,0.82,2.39,1.66,3.56,2.54
		c1.25,0.95,2.49,1.91,3.7,2.93c0.73,0.61,1.42,1.27,2.11,1.87c-0.21,0.42-0.31,0.68-0.46,0.89c-4.45,5.98-8.89,11.95-13.35,17.93
		c-0.37,0.5-0.8,0.94-1.24,1.38c-2.26,2.26-4.38,2.68-7.22,1.27c-1.66-0.83-3.22-1.85-4.83-2.79c-3.51-2.06-6.91-4.38-10.57-6.12
		c-11.09-5.28-22.9-6.66-35.02-5.82c-15.36,1.08-28.41,7.14-38.81,18.59c-8.01,8.81-12.79,19.32-15.52,30.78
		c-3.27,13.7-3.63,27.56-1.74,41.5c1.59,11.76,5.38,22.78,11.96,32.68c1.3,1.96,2.67,3.81,4.11,5.56c0.14,0.17,0.3,0.32,0.45,0.49
		c1.32,1.58,2.68,3.09,4.11,4.49c0.03,0.03,0.06,0.05,0.08,0.08c3.13,3.07,6.54,5.72,10.2,7.95c0,0,0,0,0,0c0,0,0,0,0,0
		c1.88,1.29,3.83,2.46,5.86,3.51c0.01,0.01,0.03,0.02,0.04,0.02c1.92,0.99,3.9,1.87,5.94,2.64c0.17,0.06,0.33,0.14,0.49,0.2
		c1.88,0.69,3.82,1.27,5.81,1.78c0.34,0.09,0.67,0.21,1.01,0.29c2.29,0.55,4.65,0.99,7.09,1.3c6.55,0.83,13.09,0.51,19.65-0.1
		c11.23-1.05,21.38-4.79,30.12-12.07c1.23-1.02,2.41-2.1,3.7-3.03c0.61-0.44,1.18-0.72,1.74-0.96c0.26-0.1,0.52-0.21,0.77-0.27
		c0.2-0.06,0.4-0.05,0.59-0.08c0.66-0.07,1.3-0.03,1.93,0.2c0,0,0,0,0,0c0.08,0.08,0.16,0.12,0.25,0.21
		c4.85,5.3,9.88,10.44,14.81,15.67c0.59,0.63,1.01,1.41,1.51,2.13c0.29,0.23,0.58,0.46,0.87,0.68c0.19,0.16,0.37,0.32,0.55,0.48
		c-2.63-1.25-5.03-0.76-7.5,1.21c-8.01,6.37-16.66,11.73-26.02,15.91c-13.93,6.21-28.51,9.03-43.74,8.09
		c-12.98-0.81-25.28-4.31-37.02-9.83c-18.97-8.9-35.14-21.55-49.11-37.09c-0.36-0.39-0.68-0.83-1.06-1.19
		c-2.21-2.11-5.49-2.22-7.73-0.31c-1.91,1.63-2.4,4.08-1.5,6.34c-0.74,1.74-0.61,3.77,0.62,5.53c0.61,0.87,1.34,1.65,2.05,2.44
		c6.35,7.08,13.31,13.53,20.76,19.42c14.67,11.58,30.66,20.73,48.69,26.03c14.58,4.28,29.39,5.61,44.44,3.43
		c14.12-2.04,27.26-6.93,39.59-14.01c6.25-3.58,12.17-7.61,17.79-12.11c2.5-2,3.06-4.01,2.13-6.88c0.57-1.33,0.56-2.78-0.1-4.6
		c-0.06-0.15-0.1-0.31-0.15-0.46c4.26,3.94,8.45,7.94,12.81,11.75c1.57,1.37,3.19,2.67,4.83,3.91c0.11,0.08,0.22,0.16,0.33,0.24
		c1.6,1.21,3.23,2.34,4.89,3.43c2.08,1.46,4.23,2.82,6.42,4.08c0.25,0.15,0.51,0.29,0.77,0.43c2.15,1.21,4.33,2.36,6.58,3.38
		c0.02,0.01,0.03,0.02,0.05,0.02c2.19,1,4.45,1.89,6.74,2.71c0.49,0.17,0.98,0.34,1.47,0.51c2.28,0.77,4.6,1.49,6.98,2.08
		c11.23,2.81,22.59,4.4,34.16,4.69c15.17,0.39,30.08-1.26,44.7-5.42c13.62-3.87,26.08-10.11,37.58-18.32
		c2.14-1.52,3.27-3.41,3.18-6.04c-0.02-0.62,0-1.24,0-1.86v-86.78c0-0.71,0.02-1.42-0.01-2.13c-0.04-0.91-0.2-1.7-0.44-2.41
		c-0.08-0.26-0.21-0.48-0.32-0.71c-0.19-0.4-0.42-0.77-0.68-1.09c-0.19-0.23-0.38-0.45-0.61-0.63c-0.29-0.24-0.64-0.43-1-0.6
		c-0.28-0.14-0.52-0.31-0.83-0.4l0,0l0,0c-0.22-0.26-0.47-0.49-0.74-0.7c-0.38-0.31-0.8-0.57-1.28-0.77
		c-0.19-0.07-0.4-0.12-0.6-0.17c-0.67-0.2-1.41-0.33-2.27-0.33c-25.46-0.02-50.92-0.02-76.38,0c-3.88,0-6.22,2.16-6.26,6.04
		c-0.09,9.31-0.17,18.63,0.03,27.95c0.02,0.78,0.1,1.52,0.22,2.25c0.04,0.26,0.11,0.51,0.16,0.76c0.1,0.45,0.21,0.89,0.35,1.32
		c0.1,0.3,0.2,0.6,0.32,0.89c0.13,0.33,0.29,0.65,0.44,0.97c0.16,0.33,0.32,0.66,0.51,0.98c0.09,0.14,0.19,0.27,0.28,0.41
		c0.89,1.37,2.02,2.56,3.35,3.54c0.04,0.03,0.09,0.07,0.13,0.1c0.48,0.34,0.98,0.66,1.51,0.95c0.76,0.65,1.62,1.19,2.52,1.67
		c0.2,0.11,0.4,0.21,0.6,0.31c0.95,0.45,1.94,0.85,3.01,1.11c1.88,0.46,3.86,0.58,5.8,0.63c4.14,0.09,8.28,0.02,12.42,0.04v21.79
		c-1.08,0.41-2.13,0.83-3.2,1.2c-10.88,3.73-22.01,4.5-33.32,2.72c-2.39-0.38-4.69-0.88-6.92-1.47c-1.63-0.44-3.18-0.97-4.73-1.52
		c-0.49-0.17-0.99-0.31-1.47-0.49c-1.9-0.74-3.74-1.57-5.51-2.49c-0.05-0.02-0.09-0.04-0.14-0.07c-1.84-0.96-3.61-2.02-5.3-3.17
		c-3.62-2.79-6.86-6.08-9.69-9.88c-0.06-0.08-0.11-0.17-0.17-0.25c-1.35-1.83-2.62-3.76-3.79-5.83c-1.22-2.16-2.34-4.44-3.36-6.86
		c-4.68-11.07-5.98-22.73-5.77-34.63c0.17-9.85,1.73-19.43,5.53-28.54c7.03-16.87,19.18-27.94,37.22-31.79
		c11.8-2.52,23.64-1.74,35.33,1.11c7.58,1.85,14.34,5.59,21.03,9.45c1.92,1.1,3.84,2.24,5.88,3.07c8.79,3.58,17.9,1.05,23.31-6.75
		c5.25-7.58,10.22-15.36,15.23-23.1c1.76-2.71,1.34-5.39-1.01-7.69C539.66,458.07,538.33,456.91,536.97,455.76z"/>
	<polygon class="st0" points="621.85,373.3 618.33,373.3 615.91,373.3 615.91,706.7 618.33,706.7 621.85,706.7 624.28,706.7 
		624.28,373.3 	"/>
	<g>
		<path class="st1" d="M718.79,459.54c0,2.77-0.34,5.27-1.03,7.51c-0.68,2.23-1.7,4.13-3.06,5.7c-1.35,1.57-3.04,2.77-5.07,3.62
			c-2.02,0.84-4.38,1.26-7.06,1.26c-1.23,0-2.43-0.07-3.61-0.22c-1.19-0.15-2.42-0.38-3.72-0.7c0.07-0.91,0.15-1.82,0.24-2.73
			c0.09-0.91,0.17-1.82,0.24-2.73c0.07-0.5,0.27-0.91,0.6-1.21c0.33-0.31,0.8-0.46,1.41-0.46c0.39,0,0.89,0.08,1.52,0.24
			c0.63,0.16,1.42,0.24,2.37,0.24c1.3,0,2.45-0.19,3.45-0.57c1-0.37,1.83-0.97,2.51-1.79c0.67-0.82,1.18-1.88,1.52-3.19
			c0.34-1.31,0.51-2.9,0.51-4.76v-32h9.18V459.54z"/>
		<path class="st1" d="M725.92,446.95c4.03-3.68,8.87-5.52,14.54-5.52c2.05,0,3.88,0.34,5.49,1c1.62,0.67,2.98,1.6,4.09,2.8
			c1.12,1.19,1.96,2.62,2.54,4.28c0.58,1.66,0.87,3.48,0.87,5.46v22.11h-3.82c-0.8,0-1.41-0.12-1.84-0.36
			c-0.43-0.24-0.77-0.72-1.02-1.45l-0.75-2.52c-0.89,0.8-1.76,1.5-2.6,2.1c-0.84,0.6-1.71,1.11-2.62,1.52
			c-0.91,0.41-1.88,0.72-2.92,0.94c-1.04,0.22-2.18,0.32-3.43,0.32c-1.48,0-2.85-0.2-4.09-0.59c-1.26-0.4-2.33-1-3.24-1.79
			c-0.91-0.8-1.62-1.78-2.11-2.97c-0.5-1.18-0.75-2.56-0.75-4.13c0-0.89,0.15-1.77,0.44-2.65c0.3-0.87,0.78-1.71,1.45-2.51
			c0.67-0.8,1.54-1.55,2.61-2.25c1.07-0.71,2.38-1.32,3.94-1.84c1.56-0.52,3.37-0.95,5.44-1.28c2.07-0.33,4.43-0.53,7.1-0.6v-2.05
			c0-2.34-0.5-4.08-1.5-5.2c-1-1.13-2.44-1.69-4.33-1.69c-1.37,0-2.5,0.16-3.4,0.48c-0.9,0.32-1.69,0.68-2.37,1.07
			c-0.68,0.4-1.3,0.76-1.86,1.07c-0.56,0.32-1.18,0.48-1.86,0.48c-0.59,0-1.09-0.16-1.5-0.46c-0.41-0.31-0.74-0.67-0.99-1.08
			L725.92,446.95z M745.23,462.13c-2.43,0.11-4.48,0.32-6.14,0.63c-1.66,0.31-2.99,0.7-3.99,1.18c-1,0.48-1.72,1.03-2.15,1.67
			c-0.43,0.64-0.65,1.33-0.65,2.08c0,1.48,0.43,2.53,1.31,3.17c0.87,0.64,2.02,0.96,3.43,0.96c1.73,0,3.22-0.31,4.49-0.94
			c1.26-0.63,2.49-1.57,3.7-2.85V462.13z"/>
		<path class="st1" d="M769.24,446.37c0.71-0.71,1.45-1.36,2.24-1.96c0.78-0.6,1.62-1.12,2.49-1.54c0.88-0.42,1.82-0.75,2.82-0.99
			s2.09-0.36,3.27-0.36c1.91,0,3.61,0.32,5.09,0.97c1.48,0.65,2.71,1.56,3.7,2.73c0.99,1.17,1.74,2.57,2.25,4.2
			c0.51,1.63,0.77,3.42,0.77,5.38v22.27h-8.42V454.8c0-2.14-0.49-3.79-1.47-4.97c-0.98-1.17-2.47-1.76-4.47-1.76
			c-1.46,0-2.82,0.33-4.09,0.99c-1.28,0.66-2.48,1.56-3.62,2.69v25.31h-8.42v-35h5.15c1.09,0,1.81,0.51,2.15,1.53L769.24,446.37z"/>
		<path class="st1" d="M830,442.07v35h-5.15c-1.12,0-1.82-0.51-2.12-1.53l-0.58-2.8c-1.44,1.46-3.01,2.63-4.74,3.53
			c-1.73,0.9-3.77,1.35-6.11,1.35c-1.91,0-3.6-0.32-5.07-0.97c-1.46-0.65-2.7-1.56-3.7-2.74c-1-1.19-1.76-2.59-2.27-4.22
			c-0.51-1.62-0.77-3.42-0.77-5.37v-22.24h8.42v22.24c0,2.14,0.5,3.79,1.48,4.97c0.99,1.17,2.47,1.76,4.45,1.76
			c1.45,0,2.82-0.32,4.09-0.97c1.27-0.65,2.48-1.54,3.61-2.68v-25.31H830z"/>
		<path class="st1" d="M859.68,448.89c-0.23,0.37-0.47,0.62-0.72,0.77s-0.57,0.22-0.96,0.22c-0.41,0-0.84-0.11-1.31-0.34
			c-0.47-0.23-1-0.48-1.62-0.77c-0.62-0.28-1.31-0.54-2.1-0.77c-0.78-0.23-1.71-0.34-2.78-0.34c-1.66,0-2.97,0.35-3.91,1.06
			c-0.94,0.71-1.41,1.62-1.41,2.76c0,0.75,0.24,1.38,0.73,1.89c0.49,0.51,1.14,0.96,1.94,1.35c0.81,0.39,1.72,0.73,2.74,1.04
			c1.03,0.3,2.07,0.64,3.13,1c1.05,0.37,2.1,0.78,3.12,1.25c1.02,0.46,1.94,1.05,2.74,1.77s1.46,1.57,1.94,2.58
			c0.49,1,0.73,2.21,0.73,3.62c0,1.68-0.3,3.24-0.9,4.66c-0.6,1.42-1.5,2.65-2.68,3.69c-1.19,1.03-2.65,1.84-4.38,2.42
			c-1.74,0.58-3.75,0.87-6.02,0.87c-1.21,0-2.38-0.11-3.53-0.32c-1.15-0.21-2.25-0.52-3.31-0.9c-1.06-0.39-2.03-0.84-2.93-1.37
			c-0.9-0.52-1.69-1.09-2.37-1.71l1.94-3.21c0.25-0.39,0.55-0.68,0.89-0.89c0.34-0.21,0.77-0.31,1.3-0.31s1.02,0.15,1.48,0.44
			c0.47,0.3,1,0.62,1.62,0.96c0.62,0.34,1.34,0.66,2.17,0.96c0.83,0.3,1.88,0.44,3.16,0.44c1,0,1.86-0.12,2.58-0.36
			c0.71-0.24,1.3-0.55,1.77-0.94c0.47-0.39,0.81-0.84,1.03-1.35c0.21-0.51,0.32-1.04,0.32-1.59c0-0.82-0.25-1.49-0.73-2.01
			c-0.49-0.52-1.14-0.98-1.94-1.37c-0.81-0.39-1.73-0.73-2.76-1.04c-1.03-0.31-2.09-0.64-3.17-1.01c-1.08-0.36-2.14-0.79-3.17-1.28
			c-1.04-0.49-1.96-1.11-2.76-1.86c-0.81-0.75-1.46-1.67-1.94-2.76c-0.49-1.09-0.73-2.41-0.73-3.96c0-1.43,0.28-2.8,0.85-4.09
			c0.57-1.3,1.4-2.43,2.51-3.39c1.1-0.97,2.48-1.74,4.13-2.32c1.65-0.58,3.55-0.87,5.71-0.87c2.41,0,4.61,0.4,6.59,1.19
			c1.98,0.8,3.63,1.84,4.95,3.14L859.68,448.89z"/>
		<path class="st1" d="M733.87,547.32c0.5,0,0.94,0.19,1.33,0.58l3.61,3.92c-2,2.48-4.46,4.38-7.39,5.7
			c-2.92,1.32-6.43,1.98-10.52,1.98c-3.66,0-6.95-0.62-9.88-1.87c-2.92-1.25-5.42-2.99-7.49-5.22c-2.07-2.23-3.65-4.89-4.76-7.99
			c-1.1-3.09-1.66-6.47-1.66-10.13c0-3.71,0.59-7.1,1.78-10.18c1.18-3.08,2.85-5.73,5-7.96c2.15-2.23,4.71-3.96,7.69-5.2
			c2.98-1.24,6.28-1.86,9.9-1.86c3.59,0,6.78,0.59,9.57,1.78c2.78,1.18,5.16,2.73,7.11,4.64l-3.07,4.27
			c-0.18,0.27-0.42,0.51-0.7,0.71c-0.28,0.21-0.68,0.31-1.18,0.31c-0.34,0-0.69-0.09-1.06-0.29c-0.36-0.19-0.76-0.43-1.19-0.72
			c-0.43-0.28-0.93-0.6-1.5-0.94c-0.57-0.34-1.23-0.65-1.98-0.94c-0.75-0.28-1.62-0.52-2.61-0.71c-0.99-0.19-2.13-0.29-3.43-0.29
			c-2.21,0-4.22,0.39-6.05,1.18c-1.83,0.78-3.41,1.92-4.72,3.41c-1.32,1.49-2.34,3.31-3.07,5.46c-0.73,2.15-1.09,4.6-1.09,7.35
			c0,2.78,0.39,5.24,1.18,7.4c0.78,2.16,1.85,3.98,3.19,5.46c1.34,1.48,2.92,2.61,4.74,3.4c1.82,0.78,3.77,1.18,5.87,1.18
			c1.25,0,2.38-0.07,3.39-0.21c1.01-0.14,1.94-0.35,2.8-0.65s1.66-0.68,2.42-1.14c0.76-0.47,1.52-1.04,2.27-1.72
			c0.23-0.21,0.47-0.37,0.72-0.5C733.33,547.38,733.6,547.32,733.87,547.32z"/>
		<path class="st1" d="M758.56,523.4c2.59,0,4.95,0.42,7.08,1.26c2.13,0.84,3.95,2.03,5.46,3.58c1.51,1.55,2.68,3.43,3.5,5.66
			c0.82,2.23,1.23,4.72,1.23,7.47c0,2.78-0.41,5.28-1.23,7.51c-0.82,2.23-1.99,4.13-3.5,5.7c-1.51,1.57-3.33,2.78-5.46,3.62
			c-2.12,0.84-4.49,1.26-7.08,1.26c-2.62,0-4.99-0.42-7.13-1.26c-2.14-0.84-3.97-2.05-5.48-3.62c-1.51-1.57-2.69-3.47-3.51-5.7
			c-0.83-2.23-1.25-4.73-1.25-7.51c0-2.75,0.41-5.24,1.25-7.47c0.83-2.23,2-4.12,3.51-5.66c1.51-1.55,3.33-2.74,5.48-3.58
			C753.57,523.82,755.95,523.4,758.56,523.4z M758.56,552.98c2.91,0,5.07-0.98,6.47-2.93c1.4-1.96,2.1-4.82,2.1-8.6
			s-0.7-6.65-2.1-8.63c-1.4-1.98-3.56-2.97-6.47-2.97c-2.96,0-5.14,1-6.57,2.99c-1.42,1.99-2.13,4.86-2.13,8.61s0.71,6.61,2.13,8.58
			C753.42,552,755.61,552.98,758.56,552.98z"/>
		<path class="st1" d="M790.16,528.25c0.71-0.71,1.45-1.36,2.24-1.96c0.78-0.6,1.62-1.12,2.49-1.54c0.88-0.42,1.82-0.75,2.82-0.99
			c1-0.24,2.09-0.36,3.27-0.36c1.91,0,3.61,0.32,5.09,0.97c1.48,0.65,2.71,1.56,3.7,2.73c0.99,1.17,1.74,2.57,2.25,4.2
			c0.51,1.63,0.77,3.42,0.77,5.38v22.27h-8.42v-22.27c0-2.14-0.49-3.79-1.47-4.97c-0.98-1.17-2.47-1.76-4.47-1.76
			c-1.46,0-2.82,0.33-4.09,0.99c-1.28,0.66-2.48,1.56-3.62,2.69v25.31h-8.42v-35h5.15c1.09,0,1.81,0.51,2.15,1.53L790.16,528.25z"/>
		<path class="st1" d="M855.59,558.95h-8.43v-28.69h-16.24v18.96c0,1.1,0.27,1.94,0.8,2.56c0.53,0.62,1.27,0.92,2.2,0.92
			c0.52,0,0.96-0.06,1.31-0.19c0.35-0.12,0.66-0.25,0.92-0.39c0.26-0.14,0.5-0.27,0.7-0.39c0.21-0.13,0.41-0.19,0.62-0.19
			c0.25,0,0.46,0.06,0.62,0.19c0.16,0.12,0.33,0.31,0.51,0.56l2.52,4.09c-1.23,1.03-2.64,1.8-4.23,2.32
			c-1.59,0.52-3.24,0.78-4.95,0.78c-3.05,0-5.39-0.86-7.01-2.58c-1.62-1.72-2.44-4.09-2.44-7.11v-19.55h-3.58
			c-0.46,0-0.84-0.15-1.16-0.44c-0.32-0.3-0.48-0.74-0.48-1.33v-3.34l5.63-0.96l1.78-9.52c0.11-0.46,0.33-0.8,0.65-1.06
			c0.32-0.25,0.73-0.37,1.23-0.37h4.37v11.02h24.67V558.95z M857.06,513.61c0,0.73-0.15,1.42-0.44,2.07
			c-0.3,0.65-0.69,1.21-1.18,1.69c-0.49,0.48-1.07,0.86-1.74,1.14c-0.67,0.29-1.38,0.43-2.13,0.43c-0.73,0-1.41-0.14-2.05-0.43
			c-0.64-0.28-1.19-0.66-1.67-1.14c-0.48-0.48-0.86-1.04-1.14-1.69c-0.28-0.65-0.43-1.34-0.43-2.07c0-0.75,0.14-1.45,0.43-2.1
			c0.28-0.65,0.66-1.22,1.14-1.71c0.48-0.49,1.03-0.87,1.67-1.16c0.64-0.28,1.32-0.43,2.05-0.43c0.75,0,1.46,0.14,2.13,0.43
			c0.67,0.29,1.25,0.67,1.74,1.16c0.49,0.49,0.88,1.06,1.18,1.71C856.91,512.16,857.06,512.86,857.06,513.61z"/>
		<path class="st1" d="M872.07,528.25c0.71-0.71,1.45-1.36,2.24-1.96c0.78-0.6,1.62-1.12,2.49-1.54c0.88-0.42,1.82-0.75,2.82-0.99
			c1-0.24,2.09-0.36,3.27-0.36c1.91,0,3.61,0.32,5.09,0.97c1.48,0.65,2.71,1.56,3.7,2.73c0.99,1.17,1.74,2.57,2.25,4.2
			c0.51,1.63,0.77,3.42,0.77,5.38v22.27h-8.42v-22.27c0-2.14-0.49-3.79-1.47-4.97c-0.98-1.17-2.47-1.76-4.47-1.76
			c-1.46,0-2.82,0.33-4.09,0.99c-1.28,0.66-2.48,1.56-3.62,2.69v25.31h-8.42v-35h5.15c1.09,0,1.81,0.51,2.15,1.53L872.07,528.25z"/>
		<path class="st1" d="M909.15,542.51c0.14,1.8,0.46,3.35,0.96,4.66c0.5,1.31,1.16,2.39,1.98,3.24c0.82,0.85,1.79,1.49,2.92,1.91
			c1.12,0.42,2.37,0.63,3.74,0.63c1.36,0,2.54-0.16,3.53-0.48c0.99-0.32,1.85-0.67,2.59-1.06c0.74-0.39,1.39-0.74,1.94-1.06
			c0.56-0.32,1.1-0.48,1.62-0.48c0.71,0,1.23,0.26,1.57,0.79l2.42,3.07c-0.93,1.1-1.98,2.01-3.14,2.75
			c-1.16,0.74-2.37,1.33-3.63,1.77c-1.26,0.45-2.55,0.76-3.86,0.94c-1.31,0.18-2.58,0.27-3.8,0.27c-2.44,0-4.7-0.41-6.79-1.21
			c-2.09-0.8-3.91-2-5.46-3.58c-1.55-1.58-2.76-3.54-3.65-5.87c-0.89-2.33-1.33-5.03-1.33-8.1c0-2.39,0.39-4.63,1.16-6.74
			c0.77-2.1,1.88-3.93,3.33-5.49s3.21-2.79,5.29-3.7c2.08-0.91,4.43-1.36,7.05-1.36c2.21,0,4.24,0.35,6.11,1.06
			c1.86,0.71,3.47,1.73,4.81,3.08c1.34,1.35,2.39,3.01,3.15,4.98c0.76,1.96,1.14,4.21,1.14,6.73c0,1.28-0.14,2.13-0.41,2.58
			c-0.27,0.45-0.8,0.67-1.57,0.67H909.15z M925.22,537.42c0-1.09-0.15-2.12-0.46-3.08c-0.31-0.97-0.77-1.81-1.38-2.54
			c-0.62-0.73-1.39-1.3-2.34-1.72c-0.94-0.42-2.04-0.63-3.29-0.63c-2.43,0-4.35,0.69-5.75,2.08c-1.4,1.39-2.29,3.36-2.68,5.9H925.22
			z"/>
		<path class="st1" d="M946.98,528.25c0.71-0.71,1.45-1.36,2.24-1.96c0.78-0.6,1.62-1.12,2.49-1.54c0.88-0.42,1.82-0.75,2.82-0.99
			c1-0.24,2.09-0.36,3.27-0.36c1.91,0,3.61,0.32,5.09,0.97c1.48,0.65,2.71,1.56,3.7,2.73c0.99,1.17,1.74,2.57,2.25,4.2
			c0.51,1.63,0.77,3.42,0.77,5.38v22.27h-8.42v-22.27c0-2.14-0.49-3.79-1.47-4.97c-0.98-1.17-2.47-1.76-4.47-1.76
			c-1.46,0-2.82,0.33-4.09,0.99c-1.28,0.66-2.48,1.56-3.62,2.69v25.31h-8.42v-35h5.15c1.09,0,1.81,0.51,2.15,1.53L946.98,528.25z"/>
		<path class="st1" d="M988.78,559.49c-3.05,0-5.39-0.86-7.01-2.58c-1.62-1.72-2.44-4.09-2.44-7.11v-19.55h-3.58
			c-0.46,0-0.84-0.15-1.16-0.44c-0.32-0.3-0.48-0.74-0.48-1.33v-3.34l5.63-0.92l1.78-9.55c0.11-0.46,0.33-0.8,0.65-1.06
			c0.32-0.25,0.73-0.37,1.23-0.37h4.37v11.02h9.35v6h-9.35v18.96c0,1.1,0.27,1.94,0.8,2.56c0.53,0.62,1.27,0.92,2.2,0.92
			c0.52,0,0.96-0.06,1.31-0.19c0.35-0.12,0.66-0.25,0.92-0.39c0.26-0.14,0.5-0.27,0.7-0.39c0.21-0.13,0.41-0.19,0.62-0.19
			c0.25,0,0.46,0.06,0.62,0.19c0.16,0.12,0.33,0.31,0.51,0.56l2.52,4.09c-1.23,1.03-2.64,1.8-4.23,2.32
			C992.13,559.23,990.48,559.49,988.78,559.49z"/>
		<path class="st1" d="M1001.67,528.82c4.03-3.68,8.87-5.52,14.54-5.52c2.05,0,3.88,0.34,5.49,1c1.62,0.67,2.98,1.6,4.09,2.8
			c1.12,1.19,1.96,2.62,2.54,4.28c0.58,1.66,0.87,3.48,0.87,5.46v22.11h-3.82c-0.8,0-1.41-0.12-1.84-0.36
			c-0.43-0.24-0.77-0.72-1.02-1.45l-0.75-2.52c-0.89,0.8-1.76,1.49-2.6,2.1c-0.84,0.6-1.71,1.11-2.62,1.52
			c-0.91,0.41-1.88,0.72-2.92,0.94c-1.04,0.22-2.18,0.32-3.43,0.32c-1.48,0-2.85-0.2-4.09-0.59c-1.26-0.4-2.33-1-3.24-1.79
			c-0.91-0.8-1.62-1.78-2.11-2.97c-0.5-1.18-0.75-2.56-0.75-4.13c0-0.89,0.15-1.77,0.44-2.65c0.3-0.87,0.78-1.71,1.45-2.51
			c0.67-0.8,1.54-1.55,2.61-2.25c1.07-0.71,2.38-1.32,3.94-1.85c1.56-0.52,3.37-0.95,5.44-1.28c2.07-0.33,4.43-0.53,7.1-0.6v-2.05
			c0-2.34-0.5-4.08-1.5-5.2c-1-1.13-2.44-1.69-4.33-1.69c-1.37,0-2.5,0.16-3.4,0.48c-0.9,0.32-1.69,0.68-2.37,1.07
			c-0.68,0.4-1.3,0.76-1.86,1.07c-0.56,0.32-1.18,0.48-1.86,0.48c-0.59,0-1.09-0.16-1.5-0.46c-0.41-0.31-0.74-0.67-0.99-1.08
			L1001.67,528.82z M1020.98,544.01c-2.43,0.11-4.48,0.32-6.14,0.63c-1.66,0.3-2.99,0.7-3.99,1.18c-1,0.48-1.72,1.03-2.15,1.67
			c-0.43,0.64-0.65,1.33-0.65,2.08c0,1.48,0.43,2.53,1.31,3.17c0.87,0.64,2.02,0.96,3.43,0.96c1.73,0,3.22-0.31,4.49-0.94
			c1.26-0.62,2.49-1.57,3.7-2.85V544.01z"/>
		<path class="st1" d="M1045.65,508.26v50.69h-8.42v-50.69H1045.65z"/>
		<path class="st1" d="M740.65,616.09v19.96c-2.5,1.85-5.17,3.19-8,4.04c-2.83,0.85-5.86,1.28-9.09,1.28
			c-4.03,0-7.67-0.62-10.93-1.87c-3.26-1.25-6.05-2.99-8.36-5.22c-2.31-2.23-4.09-4.89-5.34-7.99c-1.25-3.09-1.87-6.47-1.87-10.13
			c0-3.71,0.6-7.11,1.81-10.2c1.21-3.09,2.92-5.75,5.13-7.99c2.21-2.23,4.91-3.95,8.07-5.18c3.16-1.23,6.71-1.84,10.64-1.84
			c2,0,3.87,0.16,5.61,0.48c1.74,0.32,3.35,0.76,4.85,1.32c1.49,0.56,2.85,1.23,4.08,2.03c1.23,0.8,2.35,1.67,3.38,2.62l-2.62,4.16
			c-0.41,0.66-0.95,1.06-1.6,1.21c-0.66,0.15-1.38-0.02-2.15-0.49c-0.75-0.43-1.5-0.87-2.25-1.3c-0.75-0.43-1.59-0.8-2.51-1.12
			c-0.92-0.32-1.96-0.58-3.1-0.78s-2.47-0.31-3.97-0.31c-2.43,0-4.63,0.41-6.6,1.23c-1.97,0.82-3.65,1.99-5.03,3.51
			c-1.39,1.53-2.46,3.35-3.21,5.49c-0.75,2.14-1.13,4.53-1.13,7.17c0,2.82,0.41,5.34,1.21,7.55c0.8,2.22,1.94,4.1,3.41,5.63
			c1.47,1.53,3.24,2.71,5.31,3.51c2.07,0.81,4.38,1.21,6.92,1.21c1.82,0,3.45-0.19,4.88-0.58c1.43-0.39,2.83-0.91,4.2-1.57v-8.94
			h-6.21c-0.59,0-1.05-0.17-1.38-0.5c-0.33-0.33-0.49-0.73-0.49-1.21v-5.19H740.65z"/>
		<path class="st1" d="M755.63,611.9c1.09-2.09,2.39-3.74,3.89-4.93c1.5-1.19,3.28-1.79,5.32-1.79c1.62,0,2.91,0.35,3.89,1.05
			l-0.55,6.31c-0.11,0.41-0.28,0.7-0.5,0.87c-0.21,0.17-0.5,0.26-0.87,0.26c-0.34,0-0.84-0.06-1.52-0.17
			c-0.67-0.11-1.32-0.17-1.96-0.17c-0.94,0-1.76,0.14-2.49,0.41c-0.73,0.27-1.38,0.67-1.96,1.18c-0.58,0.51-1.09,1.13-1.53,1.86
			c-0.44,0.73-0.86,1.56-1.25,2.49v21.56h-8.42v-35h4.95c0.87,0,1.47,0.15,1.81,0.46c0.34,0.31,0.57,0.86,0.68,1.65L755.63,611.9z"
			/>
		<path class="st1" d="M787.63,605.28c2.59,0,4.95,0.42,7.08,1.26c2.13,0.84,3.95,2.04,5.46,3.58c1.51,1.55,2.68,3.43,3.5,5.66
			c0.82,2.23,1.23,4.72,1.23,7.47c0,2.78-0.41,5.28-1.23,7.51c-0.82,2.23-1.99,4.13-3.5,5.7c-1.51,1.57-3.33,2.78-5.46,3.62
			c-2.12,0.84-4.49,1.26-7.08,1.26c-2.62,0-4.99-0.42-7.13-1.26c-2.14-0.84-3.97-2.05-5.48-3.62c-1.51-1.57-2.69-3.47-3.51-5.7
			c-0.83-2.23-1.25-4.73-1.25-7.51c0-2.75,0.41-5.24,1.25-7.47c0.83-2.23,2-4.12,3.51-5.66c1.51-1.55,3.33-2.74,5.48-3.58
			C782.64,605.7,785.01,605.28,787.63,605.28z M787.63,634.86c2.91,0,5.07-0.98,6.47-2.93c1.4-1.96,2.1-4.82,2.1-8.6
			c0-3.78-0.7-6.65-2.1-8.63c-1.4-1.98-3.56-2.97-6.47-2.97c-2.96,0-5.14,0.99-6.57,2.98c-1.42,1.99-2.13,4.86-2.13,8.62
			s0.71,6.61,2.13,8.58C782.49,633.88,784.67,634.86,787.63,634.86z"/>
		<path class="st1" d="M841.5,605.83v35h-5.15c-1.12,0-1.82-0.51-2.12-1.53l-0.58-2.8c-1.44,1.46-3.01,2.63-4.74,3.53
			c-1.73,0.9-3.77,1.35-6.11,1.35c-1.91,0-3.6-0.32-5.07-0.97c-1.46-0.65-2.7-1.56-3.7-2.75c-1-1.18-1.76-2.58-2.27-4.21
			c-0.51-1.62-0.77-3.42-0.77-5.37v-22.24h8.42v22.24c0,2.14,0.5,3.79,1.48,4.96c0.99,1.17,2.47,1.76,4.45,1.76
			c1.45,0,2.82-0.32,4.09-0.97c1.27-0.65,2.48-1.54,3.61-2.68v-25.31H841.5z"/>
		<path class="st1" d="M857.8,610.6c1.44-1.62,3.06-2.92,4.88-3.92c1.82-1,3.96-1.5,6.41-1.5c1.91,0,3.65,0.4,5.23,1.19
			c1.58,0.8,2.94,1.95,4.1,3.46c1.15,1.51,2.03,3.38,2.66,5.59c0.63,2.22,0.94,4.76,0.94,7.62c0,2.62-0.35,5.04-1.06,7.27
			c-0.71,2.23-1.71,4.16-3.02,5.8c-1.31,1.64-2.89,2.92-4.74,3.84c-1.85,0.92-3.93,1.38-6.23,1.38c-1.96,0-3.63-0.3-5.02-0.91
			c-1.39-0.6-2.62-1.44-3.72-2.51v14.33h-8.42v-46.43h5.15c1.09,0,1.81,0.51,2.15,1.53L857.8,610.6z M858.25,631.75
			c0.96,1.16,2,1.98,3.12,2.46c1.13,0.48,2.35,0.72,3.67,0.72c1.27,0,2.42-0.24,3.45-0.72c1.02-0.48,1.89-1.21,2.61-2.18
			c0.72-0.98,1.27-2.21,1.66-3.7c0.39-1.49,0.58-3.24,0.58-5.27c0-2.05-0.16-3.78-0.5-5.2c-0.33-1.42-0.8-2.58-1.41-3.47
			c-0.62-0.89-1.36-1.53-2.24-1.94c-0.87-0.41-1.87-0.61-2.98-0.61c-1.76,0-3.24,0.37-4.47,1.11c-1.23,0.74-2.39,1.78-3.48,3.12
			V631.75z"/>
	</g>
</g>
</svg>
