<?xml version="1.0" encoding="utf-8"?>
<!-- Generator: Adobe Illustrator 26.0.1, SVG Export Plug-In . SVG Version: 6.00 Build 0)  -->
<svg version="1.1" id="Layer_1" xmlns="http://www.w3.org/2000/svg" xmlns:xlink="http://www.w3.org/1999/xlink" x="0px" y="0px"
	 viewBox="0 0 1080 1080" style="enable-background:new 0 0 1080 1080;" xml:space="preserve">
<style type="text/css">
	.st0{fill:#FBAB23;}
	.st1{fill:#272A67;}
</style>
<g>
	<g>
		<path d="M28.69,608.16l44.16-135.14l50.08-0.26c25.41-0.13,39.91,7.96,36.18,31.93c-0.59,3.8-1.61,7.99-3.06,12.56l-14.88,45.68
			c-10.98,33.69-32.91,44.82-62.4,44.98L28.69,608.16z M120.74,521.42c1.12-3.62,1.93-6.47,2.29-8.75
			c1.3-8.37-2.14-10.06-9.93-10.02l-16.14,0.08l-24.68,75.38l16.14-0.08c10.02-0.05,14.72-2.93,20.02-19.1L120.74,521.42z"/>
		<path d="M204.88,607.25l2-9.32c-11.37,9.94-25.91,12.87-37.96,12.93c-19.66,0.1-25.03-7.09-23.26-18.5
			c0.33-2.09,0.87-4.38,1.62-6.85l5.35-16.56c5.99-18.27,17.17-24.6,44.99-24.74c11.87-0.06,18.77,0.85,24.16,1.97l1.33-3.81
			c2.96-9.52-2.52-11.2-18.66-11.11c-9.83,0.05-20.49,0.67-31.16,3.77l8.8-26.84c7.71-1.94,20.56-3.53,37.07-3.61
			c26.34-0.14,40.22,4.73,37.12,24.7c-0.44,2.85-1.34,6.28-2.46,9.89l-22.04,67.95L204.88,607.25z M215.49,565.21
			c-4.52-0.74-10.02-1.09-15.59-1.06c-9.27,0.05-15.51,0.84-18.36,9.6l-0.97,2.67c-2.51,7.8-0.34,9.31,8.57,9.27
			c6.86-0.04,14.55-1.79,21.72-6.19L215.49,565.21z"/>
		<path d="M252.35,607.01l44.61-136.85l31.16-0.16l-44.61,136.85L252.35,607.01z"/>
		<path d="M409.01,572c-8.47,25.89-20.87,37.73-56.3,37.91c-25.04,0.13-36.08-5.13-44-10.22l42.4-129.81l31.16-0.16l-14.15,43.4
			c9.94-6.7,22.41-9.43,33.72-9.49c16.69-0.09,23.12,7.48,20.49,24.41c-0.68,4.37-2,9.32-3.79,14.84L409.01,572z M385.57,548.75
			c0.69-2.09,1.18-4,1.44-5.71c0.95-6.09-1.18-9.11-7.49-9.08c-6.49,0.03-13.86,2.16-20.26,6.37l-12.73,39.02
			c3.69,1.31,8.36,2.24,13.74,2.21c11.13-0.06,15.77-3.69,19.67-15.68L385.57,548.75z"/>
		<path d="M418.15,606.15l32.6-100.12l31.16-0.16l-32.6,100.12L418.15,606.15z M454.87,493.85l7.89-24.55l31.16-0.16l-7.89,24.55
			L454.87,493.85z"/>
		<path d="M520.69,606.95c-6.05,1.93-12.2,2.15-18.5,2.19c-16.48-0.1-24.75-6.52-22.44-21.36c0.38-2.47,0.95-4.94,1.95-7.8
			l16.88-51.39l-10.57,0.05l7.44-22.84l10.57-0.05l8.08-24.55l30.6-0.16l-8.08,24.55l17.25-0.09l-7.44,22.84l-17.25,0.09L514,574.87
			c-2.09,6.28-0.19,8.36,5.75,8.33c2.97-0.02,5.78-0.22,9.05-1L520.69,606.95z"/>
	</g>
	<g>
		<path class="st0" d="M637.41,388.48c48.01-3.8,95.68-1.33,143.15,5.92c67.03,10.24,132.5,25.86,193.32,57.07
			c20.67,10.61,40.11,23.06,56.09,40.25c27.81,29.92,28.49,61.34,1.7,92.1c-27.85,31.98-63.65,51.92-102.62,66.9
			c-61.91,23.79-126.75,33.39-192.3,38.78c-67.36,5.54-134.82,4.5-202.23,0.05c-6.02-0.4-11.97-1.74-17.89-3.92
			c55.88-5.67,111.63-10.52,166.74-20.76c48.06-8.93,95.27-20.66,139.93-41.12c17.73-8.12,34.25-18.22,48.95-31.01
			c40.96-35.61,42.37-87.33,3.2-124.69c-27.44-26.18-61.84-39.58-97.19-50.75C732.36,402.81,684.86,395.98,637.41,388.48z"/>
	</g>
	<path class="st1" d="M566.32,619.99c6.59-0.95,13.16-1.98,19.76-2.82c35.4-4.49,70.28-11.46,104.15-22.84
		c20.16-6.77,39.7-14.97,56.48-28.49c3.58-2.89,7.05-6.01,10.1-9.45c16.53-18.65,17.33-44.53,2.25-64.42
		c-8.58-11.32-19.81-19.32-32.3-25.62c-23.05-11.64-47.64-18.21-73.1-21.84c-3.26-0.46-6.46-1.39-9.68-2.11
		c0.08-0.57,0.16-1.15,0.25-1.72c2.31-0.11,4.62-0.41,6.91-0.32c28.87,1.14,57.45,4.57,85.46,11.8
		c22.45,5.8,44.12,13.72,64.13,25.66c11.5,6.86,22.31,14.7,30.22,25.73c13.23,18.47,13.25,33.16,1.27,51.23
		c-11.01,16.61-27.05,27.26-44.6,35.83c-22.42,10.96-46.36,17.2-70.72,21.67c-48.32,8.87-97.14,11.07-146.16,9.63
		c-1.45-0.04-2.9-0.32-4.35-0.48C566.36,620.94,566.34,620.47,566.32,619.99z"/>
</g>
</svg>
